# xmcd
#
# Track frame offsets: 
#        150
#        8421
#        18218
#        27081
#        37793
#        49815
#        60018
#        69147
#        75062
#        86209
#        95446
#        104171
#        115123
#        125280
#
# Disc length: 1827 seconds
#
# Revision: 3
# Processed by: cddbd v1.5.2PL0 Copyright (c) Steve Scherf et al.
# Submitted via: ExactAudioCopyFreeDBPlugin 1.0
#
DISCID=8f07210e
DTITLE=Johnny Cash - Johnny Cash CD 3
DYEAR=2006
DGENRE=Country
TTITLE0=Always Alone
TTITLE1=The Story Of A Broken Heart
TTITLE2=Katy Too
TTITLE3=Fools Hall Of Fame
TTITLE4=Give My Love To Rose
TTITLE5=You Win Again
TTITLE6=Blue Train
TTITLE7=You Tell Me
TTITLE8=Oh Lonesome Me
TTITLE9=Down The Street To 301
TTITLE10=Two Timin' Woman
TTITLE11=Cry, Cry, Cry
TTITLE12=I Was There When It Happened
TTITLE13=Home Of The Blues
EXTD=Ringo 335C YEAR: 2006
EXTT0=
EXTT1=
EXTT2=
EXTT3=
EXTT4=
EXTT5=
EXTT6=
EXTT7=
EXTT8=
EXTT9=
EXTT10=
EXTT11=
EXTT12=
EXTT13=
PLAYORDER=
